<?xml version="1.0" standalone="no"?>
<!DOCTYPE svg PUBLIC "-//W3C//DTD SVG 20010904//EN"
 "http://www.w3.org/TR/2001/REC-SVG-20010904/DTD/svg10.dtd">
<svg version="1.0" xmlns="http://www.w3.org/2000/svg"
 width="1000.000000pt" height="1000.000000pt" viewBox="0 0 1000.000000 1000.000000"
 preserveAspectRatio="xMidYMid meet">
<metadata>
Created by potrace 1.14, written by Peter Selinger 2001-2017
</metadata>
<g transform="translate(0.000000,1000.000000) scale(0.100000,-0.100000)"
fill="#000000" stroke="none">
<path d="M4739 9916 c-2 -2 -52 -7 -111 -10 -58 -4 -117 -9 -130 -11 -12 -2
-67 -9 -121 -15 -95 -11 -126 -16 -177 -25 -14 -3 -43 -8 -65 -11 -22 -3 -112
-21 -199 -41 -664 -146 -1299 -434 -1846 -836 -102 -75 -283 -220 -340 -273
-19 -18 -46 -42 -60 -54 -80 -69 -306 -300 -400 -410 -30 -35 -65 -75 -77 -89
-148 -169 -364 -484 -507 -739 -168 -299 -350 -732 -431 -1027 -67 -242 -103
-413 -150 -701 -2 -11 -6 -52 -10 -90 -4 -38 -9 -78 -11 -89 -11 -58 -18 -259
-18 -495 0 -312 5 -409 34 -625 6 -38 12 -86 14 -105 5 -35 21 -132 30 -180 3
-14 7 -36 10 -50 112 -608 403 -1294 782 -1840 148 -214 409 -529 550 -664 6
-6 54 -51 106 -101 514 -493 1142 -871 1826 -1101 145 -49 411 -123 499 -139
15 -2 39 -7 53 -10 38 -8 122 -25 153 -30 15 -3 42 -8 60 -11 39 -7 95 -15
122 -18 11 -2 52 -6 90 -11 39 -4 79 -9 90 -11 130 -24 952 -24 994 0 4 2 40
7 81 10 41 4 82 9 90 11 8 2 38 6 65 10 28 3 57 8 65 10 8 2 31 6 50 9 19 3
46 8 60 11 14 3 41 8 60 11 235 41 672 175 930 284 140 59 365 168 470 228
469 266 806 524 1160 887 109 112 214 228 262 290 12 17 27 35 33 41 42 44
182 237 280 384 273 414 476 850 619 1330 31 107 83 313 90 364 4 21 8 41 10
45 2 3 7 27 10 53 4 26 9 53 11 60 5 14 34 210 40 273 3 22 7 57 10 77 13 90
19 263 19 513 0 353 -4 414 -59 800 -18 121 -99 479 -135 589 -64 199 -85 259
-125 366 -26 69 -61 153 -76 188 -16 34 -29 65 -29 67 0 14 -176 354 -234 453
-66 114 -166 273 -176 282 -3 3 -18 25 -34 50 -27 42 -207 281 -230 306 -6 7
-25 29 -43 50 -17 22 -39 48 -50 60 -47 54 -159 178 -169 188 -252 246 -330
317 -490 446 -319 258 -791 536 -1169 690 -71 29 -143 58 -160 65 -140 58
-512 168 -674 200 -9 2 -50 10 -91 19 -41 8 -88 17 -105 20 -16 3 -46 8 -65
11 -38 7 -45 8 -165 24 -77 10 -140 17 -235 27 -54 5 -656 14 -661 10z"/>
</g>
</svg>
